solid ascii
  facet normal -6.456606e-001 0.000000e+000 -8.501404e-002
    outer loop
      vertex   -6.868763e+001 3.452041e+001 1.546842e+001
      vertex   -6.873875e+001 4.052041e+001 1.585664e+001
      vertex   -6.868763e+001 4.052041e+001 1.546842e+001
    endloop
  endfacet
  facet normal -6.456606e-001 -0.000000e+000 -8.501404e-002
    outer loop
      vertex   -6.873875e+001 4.052041e+001 1.585664e+001
      vertex   -6.868763e+001 3.452041e+001 1.546842e+001
      vertex   -6.873875e+001 3.452041e+001 1.585664e+001
    endloop
  endfacet
  facet normal 0.000000e+000 6.911351e-002 0.000000e+000
    outer loop
      vertex   -6.668763e+001 4.052041e+001 3.046841e+001
      vertex   -6.868763e+001 4.052041e+001 1.546842e+001
      vertex   -6.873875e+001 4.052041e+001 1.585664e+001
    endloop
  endfacet
  facet normal -6.456764e-001 0.000000e+000 8.501403e-002
    outer loop
      vertex   -6.868763e+001 4.052041e+001 1.546842e+001
      vertex   -6.873875e+001 3.452041e+001 1.508019e+001
      vertex   -6.868763e+001 3.452041e+001 1.546842e+001
    endloop
  endfacet
  facet normal 0.000000e+000 -2.604307e+000 0.000000e+000
    outer loop
      vertex   -6.868763e+001 3.452041e+001 1.546842e+001
      vertex   -6.668763e+001 3.452041e+001 3.046841e+001
      vertex   -6.873875e+001 3.452041e+001 1.585664e+001
    endloop
  endfacet
  facet normal 0.000000e+000 -1.596589e-002 0.000000e+000
    outer loop
      vertex   -6.873875e+001 3.452041e+001 1.508019e+001
      vertex   -6.668763e+001 3.452041e+001 3.046841e+001
      vertex   -6.868763e+001 3.452041e+001 1.546842e+001
    endloop
  endfacet
  facet normal -6.016705e-001 0.000000e+000 -2.492291e-001
    outer loop
      vertex   -6.873875e+001 3.452041e+001 1.585664e+001
      vertex   -6.888860e+001 4.052041e+001 1.621841e+001
      vertex   -6.873875e+001 4.052041e+001 1.585664e+001
    endloop
  endfacet
  facet normal 0.000000e+000 1.377982e-001 0.000000e+000
    outer loop
      vertex   -6.668763e+001 4.052041e+001 3.046841e+001
      vertex   -6.873875e+001 4.052041e+001 1.585664e+001
      vertex   -6.888860e+001 4.052041e+001 1.621841e+001
    endloop
  endfacet
  facet normal 0.000000e+000 4.131399e-004 0.000000e+000
    outer loop
      vertex   -6.668763e+001 4.052041e+001 3.046841e+001
      vertex   -6.873875e+001 4.052041e+001 1.508019e+001
      vertex   -6.868763e+001 4.052041e+001 1.546842e+001
    endloop
  endfacet
  facet normal -6.456764e-001 0.000000e+000 8.501403e-002
    outer loop
      vertex   -6.873875e+001 3.452041e+001 1.508019e+001
      vertex   -6.868763e+001 4.052041e+001 1.546842e+001
      vertex   -6.873875e+001 4.052041e+001 1.508019e+001
    endloop
  endfacet
  facet normal 0.000000e+000 -5.074085e+000 0.000000e+000
    outer loop
      vertex   -6.873875e+001 3.452041e+001 1.585664e+001
      vertex   -6.668763e+001 3.452041e+001 3.046841e+001
      vertex   -6.888860e+001 3.452041e+001 1.621841e+001
    endloop
  endfacet
  facet normal -6.016705e-001 -0.000000e+000 -2.492291e-001
    outer loop
      vertex   -6.888860e+001 4.052041e+001 1.621841e+001
      vertex   -6.873875e+001 3.452041e+001 1.585664e+001
      vertex   -6.888860e+001 3.452041e+001 1.621841e+001
    endloop
  endfacet
  facet normal 9.972570e+000 0.000000e+000 0.000000e+000
    outer loop
      vertex   -6.668763e+001 3.452041e+001 3.046841e+001
      vertex   -6.668763e+001 3.678412e+001 -3.158600e-002
      vertex   -6.668763e+001 4.052041e+001 3.046841e+001
    endloop
  endfacet
  facet normal 0.000000e+000 0.000000e+000 4.472135e+000
    outer loop
      vertex   -7.868764e+001 4.052041e+001 3.046841e+001
      vertex   -6.668763e+001 3.452041e+001 3.046841e+001
      vertex   -6.668763e+001 4.052041e+001 3.046841e+001
    endloop
  endfacet
  facet normal 1.215924e+000 0.000000e+000 0.000000e+000
    outer loop
      vertex   -6.668763e+001 4.052041e+001 3.046841e+001
      vertex   -6.668763e+001 3.678412e+001 -3.158600e-002
      vertex   -6.668763e+001 4.052041e+001 5.571597e+000
    endloop
  endfacet
  facet normal 0.000000e+000 7.071061e+000 0.000000e+000
    outer loop
      vertex   -6.668763e+001 4.052041e+001 3.046841e+001
      vertex   -7.018764e+001 4.052041e+001 2.696841e+001
      vertex   -7.868764e+001 4.052041e+001 3.046841e+001
    endloop
  endfacet
  facet normal 0.000000e+000 2.108617e+000 0.000000e+000
    outer loop
      vertex   -6.668763e+001 4.052041e+001 5.571597e+000
      vertex   -6.873875e+001 4.052041e+001 1.508019e+001
      vertex   -6.668763e+001 4.052041e+001 3.046841e+001
    endloop
  endfacet
  facet normal 0.000000e+000 6.579560e-001 0.000000e+000
    outer loop
      vertex   -6.668763e+001 4.052041e+001 3.046841e+001
      vertex   -6.979941e+001 4.052041e+001 2.691730e+001
      vertex   -7.018764e+001 4.052041e+001 2.696841e+001
    endloop
  endfacet
  facet normal 0.000000e+000 8.042947e-001 0.000000e+000
    outer loop
      vertex   -6.668763e+001 4.052041e+001 3.046841e+001
      vertex   -6.943764e+001 4.052041e+001 2.676745e+001
      vertex   -6.979941e+001 4.052041e+001 2.691730e+001
    endloop
  endfacet
  facet normal 0.000000e+000 8.450055e-001 0.000000e+000
    outer loop
      vertex   -6.668763e+001 4.052041e+001 3.046841e+001
      vertex   -6.912698e+001 4.052041e+001 2.652907e+001
      vertex   -6.943764e+001 4.052041e+001 2.676745e+001
    endloop
  endfacet
  facet normal 0.000000e+000 7.651775e-001 0.000000e+000
    outer loop
      vertex   -6.668763e+001 4.052041e+001 3.046841e+001
      vertex   -6.888860e+001 4.052041e+001 2.621841e+001
      vertex   -6.912698e+001 4.052041e+001 2.652907e+001
    endloop
  endfacet
  facet normal 0.000000e+000 1.999885e-001 0.000000e+000
    outer loop
      vertex   -6.668763e+001 4.052041e+001 3.046841e+001
      vertex   -6.888860e+001 4.052041e+001 1.621841e+001
      vertex   -6.912698e+001 4.052041e+001 1.652907e+001
    endloop
  endfacet
  facet normal 0.000000e+000 5.932582e-001 0.000000e+000
    outer loop
      vertex   -6.668763e+001 4.052041e+001 3.046841e+001
      vertex   -6.873875e+001 4.052041e+001 2.585664e+001
      vertex   -6.888860e+001 4.052041e+001 2.621841e+001
    endloop
  endfacet
  facet normal 0.000000e+000 2.483830e-001 0.000000e+000
    outer loop
      vertex   -6.668763e+001 4.052041e+001 3.046841e+001
      vertex   -6.912698e+001 4.052041e+001 1.652907e+001
      vertex   -6.943764e+001 4.052041e+001 1.676745e+001
    endloop
  endfacet
  facet normal 0.000000e+000 3.796968e-001 0.000000e+000
    outer loop
      vertex   -6.668763e+001 4.052041e+001 3.046841e+001
      vertex   -6.868763e+001 4.052041e+001 2.546841e+001
      vertex   -6.873875e+001 4.052041e+001 2.585664e+001
    endloop
  endfacet
  facet normal 0.000000e+000 2.763173e-001 0.000000e+000
    outer loop
      vertex   -6.668763e+001 4.052041e+001 3.046841e+001
      vertex   -6.943764e+001 4.052041e+001 1.676745e+001
      vertex   -6.979941e+001 4.052041e+001 1.691730e+001
    endloop
  endfacet
  facet normal 0.000000e+000 1.677664e-001 0.000000e+000
    outer loop
      vertex   -6.668763e+001 4.052041e+001 3.046841e+001
      vertex   -6.873875e+001 4.052041e+001 2.508018e+001
      vertex   -6.868763e+001 4.052041e+001 2.546841e+001
    endloop
  endfacet
  facet normal 0.000000e+000 2.795162e-001 0.000000e+000
    outer loop
      vertex   -6.668763e+001 4.052041e+001 3.046841e+001
      vertex   -6.979941e+001 4.052041e+001 1.691730e+001
      vertex   -7.018764e+001 4.052041e+001 1.696841e+001
    endloop
  endfacet
  facet normal 0.000000e+000 1.098319e+000 0.000000e+000
    outer loop
      vertex   -6.668763e+001 4.052041e+001 3.046841e+001
      vertex   -7.018764e+001 4.052041e+001 1.696841e+001
      vertex   -6.873875e+001 4.052041e+001 2.508018e+001
    endloop
  endfacet
  facet normal 0.000000e+000 -6.876698e+000 0.000000e+000
    outer loop
      vertex   -6.888860e+001 3.452041e+001 1.471841e+001
      vertex   -6.668763e+001 3.452041e+001 8.968415e+000
      vertex   -6.873875e+001 3.452041e+001 1.508019e+001
    endloop
  endfacet
  facet normal -6.016863e-001 0.000000e+000 2.492291e-001
    outer loop
      vertex   -6.873875e+001 4.052041e+001 1.508019e+001
      vertex   -6.888860e+001 3.452041e+001 1.471841e+001
      vertex   -6.873875e+001 3.452041e+001 1.508019e+001
    endloop
  endfacet
  facet normal 0.000000e+000 -4.406295e+000 0.000000e+000
    outer loop
      vertex   -6.873875e+001 3.452041e+001 1.508019e+001
      vertex   -6.668763e+001 3.452041e+001 8.968415e+000
      vertex   -6.668763e+001 3.452041e+001 3.046841e+001
    endloop
  endfacet
  facet normal 0.000000e+000 -8.316850e+000 0.000000e+000
    outer loop
      vertex   -6.979941e+001 3.452041e+001 2.691730e+001
      vertex   -6.668763e+001 3.452041e+001 3.046841e+001
      vertex   -7.018764e+001 3.452041e+001 2.696841e+001
    endloop
  endfacet
  facet normal 0.000000e+000 -3.807500e+000 0.000000e+000
    outer loop
      vertex   -7.868764e+001 3.452041e+001 3.046841e+001
      vertex   -7.018764e+001 3.452041e+001 2.696841e+001
      vertex   -6.668763e+001 3.452041e+001 3.046841e+001
    endloop
  endfacet
  facet normal 0.000000e+000 -9.698100e+000 0.000000e+000
    outer loop
      vertex   -6.943764e+001 3.452041e+001 2.676745e+001
      vertex   -6.668763e+001 3.452041e+001 3.046841e+001
      vertex   -6.979941e+001 3.452041e+001 2.691730e+001
    endloop
  endfacet
  facet normal 0.000000e+000 0.000000e+000 4.472135e+000
    outer loop
      vertex   -6.668763e+001 3.452041e+001 3.046841e+001
      vertex   -7.868764e+001 4.052041e+001 3.046841e+001
      vertex   -7.868764e+001 3.452041e+001 3.046841e+001
    endloop
  endfacet
  facet normal 0.000000e+000 -9.949968e+000 0.000000e+000
    outer loop
      vertex   -6.912698e+001 3.452041e+001 2.652907e+001
      vertex   -6.668763e+001 3.452041e+001 3.046841e+001
      vertex   -6.943764e+001 3.452041e+001 2.676745e+001
    endloop
  endfacet
  facet normal 0.000000e+000 -9.054125e+000 0.000000e+000
    outer loop
      vertex   -6.888860e+001 3.452041e+001 2.621841e+001
      vertex   -6.668763e+001 3.452041e+001 3.046841e+001
      vertex   -6.912698e+001 3.452041e+001 2.652907e+001
    endloop
  endfacet
  facet normal 0.000000e+000 -7.251110e+000 0.000000e+000
    outer loop
      vertex   -6.873875e+001 3.452041e+001 2.585664e+001
      vertex   -6.668763e+001 3.452041e+001 3.046841e+001
      vertex   -6.888860e+001 3.452041e+001 2.621841e+001
    endloop
  endfacet
  facet normal 2.439258e+000 0.000000e+000 0.000000e+000
    outer loop
      vertex   -6.668763e+001 3.452041e+001 8.968415e+000
      vertex   -6.668763e+001 3.678412e+001 -3.158600e-002
      vertex   -6.668763e+001 3.452041e+001 3.046841e+001
    endloop
  endfacet
  facet normal 0.000000e+000 -4.894161e+000 0.000000e+000
    outer loop
      vertex   -6.868763e+001 3.452041e+001 2.546841e+001
      vertex   -6.668763e+001 3.452041e+001 3.046841e+001
      vertex   -6.873875e+001 3.452041e+001 2.585664e+001
    endloop
  endfacet
  facet normal 0.000000e+000 -2.307179e+000 0.000000e+000
    outer loop
      vertex   -6.873875e+001 3.452041e+001 2.508018e+001
      vertex   -6.668763e+001 3.452041e+001 3.046841e+001
      vertex   -6.868763e+001 3.452041e+001 2.546841e+001
    endloop
  endfacet
  facet normal 0.000000e+000 -7.684659e-001 0.000000e+000
    outer loop
      vertex   -7.018764e+001 3.452041e+001 1.696841e+001
      vertex   -6.668763e+001 3.452041e+001 3.046841e+001
      vertex   -6.873875e+001 3.452041e+001 2.508018e+001
    endloop
  endfacet
  facet normal 0.000000e+000 -9.955081e+000 0.000000e+000
    outer loop
      vertex   -6.979941e+001 3.452041e+001 1.691730e+001
      vertex   -6.668763e+001 3.452041e+001 3.046841e+001
      vertex   -7.018764e+001 3.452041e+001 1.696841e+001
    endloop
  endfacet
  facet normal 0.000000e+000 -9.811232e+000 0.000000e+000
    outer loop
      vertex   -6.943764e+001 3.452041e+001 1.676745e+001
      vertex   -6.668763e+001 3.452041e+001 3.046841e+001
      vertex   -6.979941e+001 3.452041e+001 1.691730e+001
    endloop
  endfacet
  facet normal 0.000000e+000 -7.227325e+000 0.000000e+000
    outer loop
      vertex   -6.888860e+001 3.452041e+001 1.621841e+001
      vertex   -6.668763e+001 3.452041e+001 3.046841e+001
      vertex   -6.912698e+001 3.452041e+001 1.652907e+001
    endloop
  endfacet
  facet normal 0.000000e+000 -8.864083e+000 0.000000e+000
    outer loop
      vertex   -6.912698e+001 3.452041e+001 1.652907e+001
      vertex   -6.668763e+001 3.452041e+001 3.046841e+001
      vertex   -6.943764e+001 3.452041e+001 1.676745e+001
    endloop
  endfacet
  facet normal -5.166664e-001 0.000000e+000 -3.964572e-001
    outer loop
      vertex   -6.888860e+001 3.452041e+001 1.621841e+001
      vertex   -6.912698e+001 4.052041e+001 1.652907e+001
      vertex   -6.888860e+001 4.052041e+001 1.621841e+001
    endloop
  endfacet
  facet normal -6.016863e-001 0.000000e+000 2.492291e-001
    outer loop
      vertex   -6.888860e+001 3.452041e+001 1.471841e+001
      vertex   -6.873875e+001 4.052041e+001 1.508019e+001
      vertex   -6.888860e+001 4.052041e+001 1.471841e+001
    endloop
  endfacet
  facet normal 0.000000e+000 5.688928e+000 0.000000e+000
    outer loop
      vertex   -6.873875e+001 4.052041e+001 1.508019e+001
      vertex   -6.668763e+001 4.052041e+001 5.571597e+000
      vertex   -6.888860e+001 4.052041e+001 1.471841e+001
    endloop
  endfacet
  facet normal -5.166664e-001 -0.000000e+000 -3.964572e-001
    outer loop
      vertex   -6.912698e+001 4.052041e+001 1.652907e+001
      vertex   -6.888860e+001 3.452041e+001 1.621841e+001
      vertex   -6.912698e+001 3.452041e+001 1.652907e+001
    endloop
  endfacet
  facet normal -2.775558e-016 7.255411e+000 -4.838022e+000
    outer loop
      vertex   -7.868764e+001 4.052041e+001 5.571597e+000
      vertex   -6.668763e+001 3.678412e+001 -3.158600e-002
      vertex   -7.868764e+001 3.678412e+001 -3.158600e-002
    endloop
  endfacet
  facet normal -2.775558e-016 7.255411e+000 -4.838022e+000
    outer loop
      vertex   -6.668763e+001 3.678412e+001 -3.158600e-002
      vertex   -7.868764e+001 4.052041e+001 5.571597e+000
      vertex   -6.668763e+001 4.052041e+001 5.571597e+000
    endloop
  endfacet
  facet normal 0.000000e+000 0.000000e+000 -1.853729e+000
    outer loop
      vertex   -6.668763e+001 3.678412e+001 -3.158600e-002
      vertex   -7.868764e+001 3.452041e+001 -3.158600e-002
      vertex   -7.868764e+001 3.678412e+001 -3.158600e-002
    endloop
  endfacet
  facet normal 0.000000e+000 0.000000e+000 -1.000000e+001
    outer loop
      vertex   -6.668763e+001 3.452041e+001 -3.158600e-002
      vertex   -7.868764e+001 3.452041e+001 -3.158600e-002
      vertex   -6.668763e+001 3.678412e+001 -3.158600e-002
    endloop
  endfacet
  facet normal 9.697939e+000 0.000000e+000 0.000000e+000
    outer loop
      vertex   -6.668763e+001 3.678412e+001 -3.158600e-002
      vertex   -6.668763e+001 3.452041e+001 8.968415e+000
      vertex   -6.668763e+001 3.452041e+001 -3.158600e-002
    endloop
  endfacet
  facet normal -9.631963e+000 0.000000e+000 0.000000e+000
    outer loop
      vertex   -7.868764e+001 4.052041e+001 3.046841e+001
      vertex   -7.868764e+001 3.452041e+001 8.968415e+000
      vertex   -7.868764e+001 3.452041e+001 3.046841e+001
    endloop
  endfacet
  facet normal -2.687991e+000 0.000000e+000 0.000000e+000
    outer loop
      vertex   -7.868764e+001 3.452041e+001 8.968415e+000
      vertex   -7.868764e+001 4.052041e+001 3.046841e+001
      vertex   -7.868764e+001 3.452041e+001 -3.158600e-002
    endloop
  endfacet
  facet normal 0.000000e+000 5.171667e+000 0.000000e+000
    outer loop
      vertex   -7.057586e+001 4.052041e+001 2.691730e+001
      vertex   -7.868764e+001 4.052041e+001 3.046841e+001
      vertex   -7.018764e+001 4.052041e+001 2.696841e+001
    endloop
  endfacet
  facet normal -9.811944e+000 0.000000e+000 0.000000e+000
    outer loop
      vertex   -7.868764e+001 3.452041e+001 -3.158600e-002
      vertex   -7.868764e+001 4.052041e+001 3.046841e+001
      vertex   -7.868764e+001 3.678412e+001 -3.158600e-002
    endloop
  endfacet
  facet normal 0.000000e+000 7.434474e+000 0.000000e+000
    outer loop
      vertex   -7.093764e+001 4.052041e+001 2.676745e+001
      vertex   -7.868764e+001 4.052041e+001 3.046841e+001
      vertex   -7.057586e+001 4.052041e+001 2.691730e+001
    endloop
  endfacet
  facet normal -4.495056e+000 0.000000e+000 0.000000e+000
    outer loop
      vertex   -7.868764e+001 3.678412e+001 -3.158600e-002
      vertex   -7.868764e+001 4.052041e+001 3.046841e+001
      vertex   -7.868764e+001 4.052041e+001 5.571597e+000
    endloop
  endfacet
  facet normal 0.000000e+000 9.092567e+000 0.000000e+000
    outer loop
      vertex   -7.124830e+001 4.052041e+001 2.652907e+001
      vertex   -7.868764e+001 4.052041e+001 3.046841e+001
      vertex   -7.093764e+001 4.052041e+001 2.676745e+001
    endloop
  endfacet
  facet normal 0.000000e+000 8.892743e+000 0.000000e+000
    outer loop
      vertex   -7.148667e+001 4.052041e+001 1.471841e+001
      vertex   -7.868764e+001 4.052041e+001 5.571597e+000
      vertex   -7.868764e+001 4.052041e+001 3.046841e+001
    endloop
  endfacet
  facet normal 0.000000e+000 9.926505e+000 0.000000e+000
    outer loop
      vertex   -7.148667e+001 4.052041e+001 2.621841e+001
      vertex   -7.868764e+001 4.052041e+001 3.046841e+001
      vertex   -7.124830e+001 4.052041e+001 2.652907e+001
    endloop
  endfacet
  facet normal 0.000000e+000 3.614081e-001 0.000000e+000
    outer loop
      vertex   -7.148667e+001 4.052041e+001 1.471841e+001
      vertex   -7.868764e+001 4.052041e+001 3.046841e+001
      vertex   -7.163652e+001 4.052041e+001 1.508019e+001
    endloop
  endfacet
  facet normal 0.000000e+000 9.826542e+000 0.000000e+000
    outer loop
      vertex   -7.163652e+001 4.052041e+001 2.585664e+001
      vertex   -7.868764e+001 4.052041e+001 3.046841e+001
      vertex   -7.148667e+001 4.052041e+001 2.621841e+001
    endloop
  endfacet
  facet normal 0.000000e+000 2.943385e+000 0.000000e+000
    outer loop
      vertex   -7.163652e+001 4.052041e+001 1.508019e+001
      vertex   -7.868764e+001 4.052041e+001 3.046841e+001
      vertex   -7.168763e+001 4.052041e+001 1.546842e+001
    endloop
  endfacet
  facet normal 0.000000e+000 8.826400e+000 0.000000e+000
    outer loop
      vertex   -7.168763e+001 4.052041e+001 2.546841e+001
      vertex   -7.868764e+001 4.052041e+001 3.046841e+001
      vertex   -7.163652e+001 4.052041e+001 2.585664e+001
    endloop
  endfacet
  facet normal 0.000000e+000 5.375530e+000 0.000000e+000
    outer loop
      vertex   -7.168763e+001 4.052041e+001 1.546842e+001
      vertex   -7.868764e+001 4.052041e+001 3.046841e+001
      vertex   -7.163652e+001 4.052041e+001 1.585664e+001
    endloop
  endfacet
  facet normal 0.000000e+000 7.085130e+000 0.000000e+000
    outer loop
      vertex   -7.163652e+001 4.052041e+001 2.508018e+001
      vertex   -7.868764e+001 4.052041e+001 3.046841e+001
      vertex   -7.168763e+001 4.052041e+001 2.546841e+001
    endloop
  endfacet
  facet normal 0.000000e+000 7.461706e+000 0.000000e+000
    outer loop
      vertex   -7.163652e+001 4.052041e+001 1.585664e+001
      vertex   -7.868764e+001 4.052041e+001 3.046841e+001
      vertex   -7.148667e+001 4.052041e+001 1.621841e+001
    endloop
  endfacet
  facet normal 0.000000e+000 4.831677e+000 0.000000e+000
    outer loop
      vertex   -7.148667e+001 4.052041e+001 2.471842e+001
      vertex   -7.868764e+001 4.052041e+001 3.046841e+001
      vertex   -7.163652e+001 4.052041e+001 2.508018e+001
    endloop
  endfacet
  facet normal 0.000000e+000 9.011428e+000 0.000000e+000
    outer loop
      vertex   -7.148667e+001 4.052041e+001 1.621841e+001
      vertex   -7.868764e+001 4.052041e+001 3.046841e+001
      vertex   -7.124830e+001 4.052041e+001 1.652907e+001
    endloop
  endfacet
  facet normal 0.000000e+000 2.305990e+000 0.000000e+000
    outer loop
      vertex   -7.124830e+001 4.052041e+001 2.440775e+001
      vertex   -7.868764e+001 4.052041e+001 3.046841e+001
      vertex   -7.148667e+001 4.052041e+001 2.471842e+001
    endloop
  endfacet
  facet normal 0.000000e+000 9.865385e+000 0.000000e+000
    outer loop
      vertex   -7.124830e+001 4.052041e+001 1.652907e+001
      vertex   -7.868764e+001 4.052041e+001 3.046841e+001
      vertex   -7.093764e+001 4.052041e+001 1.676745e+001
    endloop
  endfacet
  facet normal 0.000000e+000 4.080359e+000 0.000000e+000
    outer loop
      vertex   -7.018764e+001 4.052041e+001 1.696841e+001
      vertex   -7.868764e+001 4.052041e+001 3.046841e+001
      vertex   -7.124830e+001 4.052041e+001 2.440775e+001
    endloop
  endfacet
  facet normal 0.000000e+000 9.925559e+000 0.000000e+000
    outer loop
      vertex   -7.093764e+001 4.052041e+001 1.676745e+001
      vertex   -7.868764e+001 4.052041e+001 3.046841e+001
      vertex   -7.057586e+001 4.052041e+001 1.691730e+001
    endloop
  endfacet
  facet normal 0.000000e+000 9.177218e+000 0.000000e+000
    outer loop
      vertex   -7.057586e+001 4.052041e+001 1.691730e+001
      vertex   -7.868764e+001 4.052041e+001 3.046841e+001
      vertex   -7.018764e+001 4.052041e+001 1.696841e+001
    endloop
  endfacet
  facet normal 0.000000e+000 7.857260e+000 0.000000e+000
    outer loop
      vertex   -7.868764e+001 4.052041e+001 5.571597e+000
      vertex   -7.148667e+001 4.052041e+001 1.471841e+001
      vertex   -6.668763e+001 4.052041e+001 5.571597e+000
    endloop
  endfacet
  facet normal 0.000000e+000 6.713057e-002 0.000000e+000
    outer loop
      vertex   -6.668763e+001 4.052041e+001 5.571597e+000
      vertex   -7.148667e+001 4.052041e+001 1.471841e+001
      vertex   -7.124830e+001 4.052041e+001 1.440775e+001
    endloop
  endfacet
  facet normal 0.000000e+000 1.738423e-001 0.000000e+000
    outer loop
      vertex   -6.668763e+001 4.052041e+001 5.571597e+000
      vertex   -7.124830e+001 4.052041e+001 1.440775e+001
      vertex   -7.093764e+001 4.052041e+001 1.416938e+001
    endloop
  endfacet
  facet normal 0.000000e+000 2.773332e-001 0.000000e+000
    outer loop
      vertex   -6.668763e+001 4.052041e+001 5.571597e+000
      vertex   -7.093764e+001 4.052041e+001 1.416938e+001
      vertex   -7.057586e+001 4.052041e+001 1.401953e+001
    endloop
  endfacet
  facet normal 0.000000e+000 3.641695e-001 0.000000e+000
    outer loop
      vertex   -6.668763e+001 4.052041e+001 5.571597e+000
      vertex   -7.057586e+001 4.052041e+001 1.401953e+001
      vertex   -7.018764e+001 4.052041e+001 1.396841e+001
    endloop
  endfacet
  facet normal 0.000000e+000 7.774760e+000 0.000000e+000
    outer loop
      vertex   -6.888860e+001 4.052041e+001 1.471841e+001
      vertex   -6.668763e+001 4.052041e+001 5.571597e+000
      vertex   -6.912698e+001 4.052041e+001 1.440775e+001
    endloop
  endfacet
  facet normal 0.000000e+000 9.754589e+000 0.000000e+000
    outer loop
      vertex   -6.979941e+001 4.052041e+001 1.401953e+001
      vertex   -6.668763e+001 4.052041e+001 5.571597e+000
      vertex   -7.018764e+001 4.052041e+001 1.396841e+001
    endloop
  endfacet
  facet normal 0.000000e+000 9.267479e+000 0.000000e+000
    outer loop
      vertex   -6.912698e+001 4.052041e+001 1.440775e+001
      vertex   -6.668763e+001 4.052041e+001 5.571597e+000
      vertex   -6.943764e+001 4.052041e+001 1.416938e+001
    endloop
  endfacet
  facet normal 0.000000e+000 9.965467e+000 0.000000e+000
    outer loop
      vertex   -6.943764e+001 4.052041e+001 1.416938e+001
      vertex   -6.668763e+001 4.052041e+001 5.571597e+000
      vertex   -6.979941e+001 4.052041e+001 1.401953e+001
    endloop
  endfacet
  facet normal 1.302477e+000 0.000000e+000 -9.893404e+000
    outer loop
      vertex   -7.057586e+001 3.452041e+001 2.691730e+001
      vertex   -7.018764e+001 4.052041e+001 2.696841e+001
      vertex   -7.018764e+001 3.452041e+001 2.696841e+001
    endloop
  endfacet
  facet normal -1.302445e+000 1.734723e-017 -9.893407e+000
    outer loop
      vertex   -6.979941e+001 4.052041e+001 2.691730e+001
      vertex   -7.018764e+001 3.452041e+001 2.696841e+001
      vertex   -7.018764e+001 4.052041e+001 2.696841e+001
    endloop
  endfacet
  facet normal 1.302477e+000 0.000000e+000 -9.893404e+000
    outer loop
      vertex   -7.018764e+001 4.052041e+001 2.696841e+001
      vertex   -7.057586e+001 3.452041e+001 2.691730e+001
      vertex   -7.057586e+001 4.052041e+001 2.691730e+001
    endloop
  endfacet
  facet normal -1.302445e+000 1.734723e-017 -9.893407e+000
    outer loop
      vertex   -7.018764e+001 3.452041e+001 2.696841e+001
      vertex   -6.979941e+001 4.052041e+001 2.691730e+001
      vertex   -6.979941e+001 3.452041e+001 2.691730e+001
    endloop
  endfacet
  facet normal -3.818662e+000 0.000000e+000 -9.219203e+000
    outer loop
      vertex   -6.943764e+001 4.052041e+001 2.676745e+001
      vertex   -6.979941e+001 3.452041e+001 2.691730e+001
      vertex   -6.979941e+001 4.052041e+001 2.691730e+001
    endloop
  endfacet
  facet normal -3.818662e+000 0.000000e+000 -9.219203e+000
    outer loop
      vertex   -6.979941e+001 3.452041e+001 2.691730e+001
      vertex   -6.943764e+001 4.052041e+001 2.676745e+001
      vertex   -6.943764e+001 3.452041e+001 2.676745e+001
    endloop
  endfacet
  facet normal -6.074800e+000 -6.938894e-017 -7.916609e+000
    outer loop
      vertex   -6.912698e+001 4.052041e+001 2.652907e+001
      vertex   -6.943764e+001 3.452041e+001 2.676745e+001
      vertex   -6.943764e+001 4.052041e+001 2.676745e+001
    endloop
  endfacet
  facet normal -5.166664e-001 -0.000000e+000 -3.964572e-001
    outer loop
      vertex   -6.912698e+001 4.052041e+001 2.652907e+001
      vertex   -6.888860e+001 3.452041e+001 2.621841e+001
      vertex   -6.912698e+001 3.452041e+001 2.652907e+001
    endloop
  endfacet
  facet normal -5.166664e-001 0.000000e+000 -3.964572e-001
    outer loop
      vertex   -6.888860e+001 3.452041e+001 2.621841e+001
      vertex   -6.912698e+001 4.052041e+001 2.652907e+001
      vertex   -6.888860e+001 4.052041e+001 2.621841e+001
    endloop
  endfacet
  facet normal -6.074800e+000 -6.938894e-017 -7.916609e+000
    outer loop
      vertex   -6.943764e+001 3.452041e+001 2.676745e+001
      vertex   -6.912698e+001 4.052041e+001 2.652907e+001
      vertex   -6.912698e+001 3.452041e+001 2.652907e+001
    endloop
  endfacet
  facet normal -6.016725e-001 -0.000000e+000 -2.492291e-001
    outer loop
      vertex   -6.888860e+001 4.052041e+001 2.621841e+001
      vertex   -6.873875e+001 3.452041e+001 2.585664e+001
      vertex   -6.888860e+001 3.452041e+001 2.621841e+001
    endloop
  endfacet
  facet normal -6.016725e-001 0.000000e+000 -2.492291e-001
    outer loop
      vertex   -6.873875e+001 3.452041e+001 2.585664e+001
      vertex   -6.888860e+001 4.052041e+001 2.621841e+001
      vertex   -6.873875e+001 4.052041e+001 2.585664e+001
    endloop
  endfacet
  facet normal -6.074800e+000 -6.938894e-017 -7.916609e+000
    outer loop
      vertex   -6.943764e+001 3.452041e+001 1.676745e+001
      vertex   -6.912698e+001 4.052041e+001 1.652907e+001
      vertex   -6.912698e+001 3.452041e+001 1.652907e+001
    endloop
  endfacet
  facet normal -6.074800e+000 -6.938894e-017 -7.916609e+000
    outer loop
      vertex   -6.912698e+001 4.052041e+001 1.652907e+001
      vertex   -6.943764e+001 3.452041e+001 1.676745e+001
      vertex   -6.943764e+001 4.052041e+001 1.676745e+001
    endloop
  endfacet
  facet normal -6.456744e-001 -0.000000e+000 -8.501403e-002
    outer loop
      vertex   -6.873875e+001 4.052041e+001 2.585664e+001
      vertex   -6.868763e+001 3.452041e+001 2.546841e+001
      vertex   -6.873875e+001 3.452041e+001 2.585664e+001
    endloop
  endfacet
  facet normal -6.456744e-001 0.000000e+000 -8.501403e-002
    outer loop
      vertex   -6.868763e+001 3.452041e+001 2.546841e+001
      vertex   -6.873875e+001 4.052041e+001 2.585664e+001
      vertex   -6.868763e+001 4.052041e+001 2.546841e+001
    endloop
  endfacet
  facet normal -3.818662e+000 0.000000e+000 -9.219203e+000
    outer loop
      vertex   -6.979941e+001 3.452041e+001 1.691730e+001
      vertex   -6.943764e+001 4.052041e+001 1.676745e+001
      vertex   -6.943764e+001 3.452041e+001 1.676745e+001
    endloop
  endfacet
  facet normal -3.818662e+000 0.000000e+000 -9.219203e+000
    outer loop
      vertex   -6.943764e+001 4.052041e+001 1.676745e+001
      vertex   -6.979941e+001 3.452041e+001 1.691730e+001
      vertex   -6.979941e+001 4.052041e+001 1.691730e+001
    endloop
  endfacet
  facet normal -6.456783e-001 0.000000e+000 8.501402e-002
    outer loop
      vertex   -6.868763e+001 4.052041e+001 2.546841e+001
      vertex   -6.873875e+001 3.452041e+001 2.508018e+001
      vertex   -6.868763e+001 3.452041e+001 2.546841e+001
    endloop
  endfacet
  facet normal -6.456783e-001 0.000000e+000 8.501402e-002
    outer loop
      vertex   -6.873875e+001 3.452041e+001 2.508018e+001
      vertex   -6.868763e+001 4.052041e+001 2.546841e+001
      vertex   -6.873875e+001 4.052041e+001 2.508018e+001
    endloop
  endfacet
  facet normal -1.302505e+000 -1.734723e-017 -9.893399e+000
    outer loop
      vertex   -7.018764e+001 3.452041e+001 1.696841e+001
      vertex   -6.979941e+001 4.052041e+001 1.691730e+001
      vertex   -6.979941e+001 3.452041e+001 1.691730e+001
    endloop
  endfacet
  facet normal -1.302505e+000 -1.734723e-017 -9.893399e+000
    outer loop
      vertex   -6.979941e+001 4.052041e+001 1.691730e+001
      vertex   -7.018764e+001 3.452041e+001 1.696841e+001
      vertex   -7.018764e+001 4.052041e+001 1.696841e+001
    endloop
  endfacet
  facet normal -6.016527e-001 0.000000e+000 2.492291e-001
    outer loop
      vertex   -6.873875e+001 4.052041e+001 2.508018e+001
      vertex   -6.888860e+001 3.452041e+001 2.471842e+001
      vertex   -6.873875e+001 3.452041e+001 2.508018e+001
    endloop
  endfacet
  facet normal -6.016527e-001 0.000000e+000 2.492291e-001
    outer loop
      vertex   -6.888860e+001 3.452041e+001 2.471842e+001
      vertex   -6.873875e+001 4.052041e+001 2.508018e+001
      vertex   -6.888860e+001 4.052041e+001 2.471842e+001
    endloop
  endfacet
  facet normal 0.000000e+000 2.142951e+000 0.000000e+000
    outer loop
      vertex   -6.873875e+001 4.052041e+001 2.508018e+001
      vertex   -7.018764e+001 4.052041e+001 1.696841e+001
      vertex   -6.888860e+001 4.052041e+001 2.471842e+001
    endloop
  endfacet
  facet normal 1.302537e+000 0.000000e+000 -9.893396e+000
    outer loop
      vertex   -7.057586e+001 3.452041e+001 1.691730e+001
      vertex   -7.018764e+001 4.052041e+001 1.696841e+001
      vertex   -7.018764e+001 3.452041e+001 1.696841e+001
    endloop
  endfacet
  facet normal 1.302537e+000 0.000000e+000 -9.893396e+000
    outer loop
      vertex   -7.018764e+001 4.052041e+001 1.696841e+001
      vertex   -7.057586e+001 3.452041e+001 1.691730e+001
      vertex   -7.057586e+001 4.052041e+001 1.691730e+001
    endloop
  endfacet
  facet normal 0.000000e+000 3.783250e-001 0.000000e+000
    outer loop
      vertex   -7.018764e+001 4.052041e+001 1.696841e+001
      vertex   -7.124830e+001 4.052041e+001 2.440775e+001
      vertex   -7.093764e+001 4.052041e+001 2.416938e+001
    endloop
  endfacet
  facet normal 0.000000e+000 4.692245e+000 0.000000e+000
    outer loop
      vertex   -6.888860e+001 4.052041e+001 2.471842e+001
      vertex   -7.018764e+001 4.052041e+001 1.696841e+001
      vertex   -6.912698e+001 4.052041e+001 2.440775e+001
    endloop
  endfacet
  facet normal 0.000000e+000 4.875622e-001 0.000000e+000
    outer loop
      vertex   -7.018764e+001 4.052041e+001 1.696841e+001
      vertex   -7.093764e+001 4.052041e+001 2.416938e+001
      vertex   -7.057586e+001 4.052041e+001 2.401953e+001
    endloop
  endfacet
  facet normal 0.000000e+000 6.994936e+000 0.000000e+000
    outer loop
      vertex   -6.912698e+001 4.052041e+001 2.440775e+001
      vertex   -7.018764e+001 4.052041e+001 1.696841e+001
      vertex   -6.943764e+001 4.052041e+001 2.416938e+001
    endloop
  endfacet
  facet normal 0.000000e+000 5.497491e-001 0.000000e+000
    outer loop
      vertex   -7.018764e+001 4.052041e+001 1.696841e+001
      vertex   -7.057586e+001 4.052041e+001 2.401953e+001
      vertex   -7.018764e+001 4.052041e+001 2.396842e+001
    endloop
  endfacet
  facet normal 0.000000e+000 8.792655e+000 0.000000e+000
    outer loop
      vertex   -6.943764e+001 4.052041e+001 2.416938e+001
      vertex   -7.018764e+001 4.052041e+001 1.696841e+001
      vertex   -6.979941e+001 4.052041e+001 2.401953e+001
    endloop
  endfacet
  facet normal 0.000000e+000 9.827705e+000 0.000000e+000
    outer loop
      vertex   -6.979941e+001 4.052041e+001 2.401953e+001
      vertex   -7.018764e+001 4.052041e+001 1.696841e+001
      vertex   -7.018764e+001 4.052041e+001 2.396842e+001
    endloop
  endfacet
  facet normal 0.000000e+000 -8.801041e+000 0.000000e+000
    outer loop
      vertex   -6.912698e+001 3.452041e+001 1.440775e+001
      vertex   -6.668763e+001 3.452041e+001 8.968415e+000
      vertex   -6.888860e+001 3.452041e+001 1.471841e+001
    endloop
  endfacet
  facet normal -5.166664e-001 0.000000e+000 3.964572e-001
    outer loop
      vertex   -6.888860e+001 4.052041e+001 1.471841e+001
      vertex   -6.912698e+001 3.452041e+001 1.440775e+001
      vertex   -6.888860e+001 3.452041e+001 1.471841e+001
    endloop
  endfacet
  facet normal 0.000000e+000 -9.859030e+000 0.000000e+000
    outer loop
      vertex   -6.943764e+001 3.452041e+001 1.416938e+001
      vertex   -6.668763e+001 3.452041e+001 8.968415e+000
      vertex   -6.912698e+001 3.452041e+001 1.440775e+001
    endloop
  endfacet
  facet normal 0.000000e+000 -8.840301e+000 0.000000e+000
    outer loop
      vertex   -6.668763e+001 3.452041e+001 8.968415e+000
      vertex   -6.943764e+001 3.452041e+001 1.416938e+001
      vertex   -7.868764e+001 3.452041e+001 8.968415e+000
    endloop
  endfacet
  facet normal 0.000000e+000 9.884765e+000 0.000000e+000
    outer loop
      vertex   -6.668763e+001 3.452041e+001 8.968415e+000
      vertex   -3.730263e+001 3.452041e+001 4.468414e+000
      vertex   -6.668763e+001 3.452041e+001 -3.158600e-002
    endloop
  endfacet
  facet normal 0.000000e+000 1.513747e+000 0.000000e+000
    outer loop
      vertex   -6.668763e+001 3.452041e+001 -3.158600e-002
      vertex   -3.730263e+001 3.452041e+001 4.468414e+000
      vertex   -3.730263e+001 3.452041e+001 -3.158600e-002
    endloop
  endfacet
  facet normal 0.000000e+000 1.000000e+001 0.000000e+000
    outer loop
      vertex   -3.730263e+001 3.452041e+001 -3.158600e-002
      vertex   -3.730263e+001 3.452041e+001 4.468414e+000
      vertex   -7.917633e+000 3.452041e+001 -3.158600e-002
    endloop
  endfacet
  facet normal 0.000000e+000 0.000000e+000 2.683780e-001
    outer loop
      vertex   -7.868764e+001 3.452041e+001 8.968415e+000
      vertex   -4.330263e+001 3.357041e+001 8.968415e+000
      vertex   -6.668763e+001 3.452041e+001 8.968415e+000
    endloop
  endfacet
  facet normal 0.000000e+000 0.000000e+000 8.283728e-002
    outer loop
      vertex   -6.668763e+001 3.452041e+001 8.968415e+000
      vertex   -4.330263e+001 3.357041e+001 8.968415e+000
      vertex   -3.730263e+001 3.357041e+001 8.968415e+000
    endloop
  endfacet
  facet normal 0.000000e+000 0.000000e+000 3.231255e-001
    outer loop
      vertex   -3.730263e+001 3.357041e+001 8.968415e+000
      vertex   -4.330263e+001 3.357041e+001 8.968415e+000
      vertex   -7.917633e+000 3.262041e+001 8.968415e+000
    endloop
  endfacet
  facet normal 0.000000e+000 9.884765e+000 0.000000e+000
    outer loop
      vertex   -7.917633e+000 3.452041e+001 -3.158600e-002
      vertex   -3.730263e+001 3.452041e+001 4.468414e+000
      vertex   -7.917633e+000 3.452041e+001 8.968415e+000
    endloop
  endfacet
  facet normal 0.000000e+000 1.513747e+000 0.000000e+000
    outer loop
      vertex   -7.917633e+000 3.452041e+001 8.968415e+000
      vertex   -3.730263e+001 3.452041e+001 4.468414e+000
      vertex   -3.730263e+001 3.452041e+001 8.968415e+000
    endloop
  endfacet
  facet normal 0.000000e+000 1.000000e+001 0.000000e+000
    outer loop
      vertex   -3.730263e+001 3.452041e+001 8.968415e+000
      vertex   -3.730263e+001 3.452041e+001 4.468414e+000
      vertex   -6.668763e+001 3.452041e+001 8.968415e+000
    endloop
  endfacet
  facet normal 0.000000e+000 0.000000e+000 3.231247e-001
    outer loop
      vertex   -6.668763e+001 3.452041e+001 8.968415e+000
      vertex   -3.730263e+001 3.357041e+001 8.968415e+000
      vertex   -3.730263e+001 3.452041e+001 8.968415e+000
    endloop
  endfacet
  facet normal 0.000000e+000 0.000000e+000 1.000000e+001
    outer loop
      vertex   -3.730263e+001 3.452041e+001 8.968415e+000
      vertex   -3.730263e+001 3.357041e+001 8.968415e+000
      vertex   -7.917633e+000 3.452041e+001 8.968415e+000
    endloop
  endfacet
  facet normal 0.000000e+000 0.000000e+000 9.994778e+000
    outer loop
      vertex   -7.917633e+000 3.452041e+001 8.968415e+000
      vertex   -3.730263e+001 3.357041e+001 8.968415e+000
      vertex   -7.917633e+000 3.262041e+001 8.968415e+000
    endloop
  endfacet
  facet normal 0.000000e+000 -2.202994e-001 0.000000e+000
    outer loop
      vertex   -7.868764e+001 3.452041e+001 3.046841e+001
      vertex   -7.057586e+001 3.452041e+001 2.691730e+001
      vertex   -7.018764e+001 3.452041e+001 2.696841e+001
    endloop
  endfacet
  facet normal 0.000000e+000 -3.287638e-001 0.000000e+000
    outer loop
      vertex   -7.868764e+001 3.452041e+001 3.046841e+001
      vertex   -7.093764e+001 3.452041e+001 2.676745e+001
      vertex   -7.057586e+001 3.452041e+001 2.691730e+001
    endloop
  endfacet
  facet normal 0.000000e+000 -4.145693e-001 0.000000e+000
    outer loop
      vertex   -7.868764e+001 3.452041e+001 3.046841e+001
      vertex   -7.124830e+001 3.452041e+001 2.652907e+001
      vertex   -7.093764e+001 3.452041e+001 2.676745e+001
    endloop
  endfacet
  facet normal 0.000000e+000 -4.617488e-001 0.000000e+000
    outer loop
      vertex   -7.868764e+001 3.452041e+001 3.046841e+001
      vertex   -7.148667e+001 3.452041e+001 2.621841e+001
      vertex   -7.124830e+001 3.452041e+001 2.652907e+001
    endloop
  endfacet
  facet normal 0.000000e+000 -7.814391e+000 0.000000e+000
    outer loop
      vertex   -7.868764e+001 3.452041e+001 8.968415e+000
      vertex   -7.148667e+001 3.452041e+001 1.471841e+001
      vertex   -7.868764e+001 3.452041e+001 3.046841e+001
    endloop
  endfacet
  facet normal 0.000000e+000 -4.601806e-001 0.000000e+000
    outer loop
      vertex   -7.868764e+001 3.452041e+001 3.046841e+001
      vertex   -7.163652e+001 3.452041e+001 2.585664e+001
      vertex   -7.148667e+001 3.452041e+001 2.621841e+001
    endloop
  endfacet
  facet normal 0.000000e+000 -8.360830e-003 0.000000e+000
    outer loop
      vertex   -7.868764e+001 3.452041e+001 3.046841e+001
      vertex   -7.148667e+001 3.452041e+001 1.471841e+001
      vertex   -7.163652e+001 3.452041e+001 1.508019e+001
    endloop
  endfacet
  facet normal 0.000000e+000 -4.102177e-001 0.000000e+000
    outer loop
      vertex   -7.868764e+001 3.452041e+001 3.046841e+001
      vertex   -7.168763e+001 3.452041e+001 2.546841e+001
      vertex   -7.163652e+001 3.452041e+001 2.585664e+001
    endloop
  endfacet
  facet normal 0.000000e+000 -6.962939e-002 0.000000e+000
    outer loop
      vertex   -7.868764e+001 3.452041e+001 3.046841e+001
      vertex   -7.163652e+001 3.452041e+001 1.508019e+001
      vertex   -7.168763e+001 3.452041e+001 1.546842e+001
    endloop
  endfacet
  facet normal 0.000000e+000 -3.225178e-001 0.000000e+000
    outer loop
      vertex   -7.868764e+001 3.452041e+001 3.046841e+001
      vertex   -7.163652e+001 3.452041e+001 2.508018e+001
      vertex   -7.168763e+001 3.452041e+001 2.546841e+001
    endloop
  endfacet
  facet normal 0.000000e+000 -1.297389e-001 0.000000e+000
    outer loop
      vertex   -7.868764e+001 3.452041e+001 3.046841e+001
      vertex   -7.168763e+001 3.452041e+001 1.546842e+001
      vertex   -7.163652e+001 3.452041e+001 1.585664e+001
    endloop
  endfacet
  facet normal 0.000000e+000 -2.131935e-001 0.000000e+000
    outer loop
      vertex   -7.868764e+001 3.452041e+001 3.046841e+001
      vertex   -7.148667e+001 3.452041e+001 2.471842e+001
      vertex   -7.163652e+001 3.452041e+001 2.508018e+001
    endloop
  endfacet
  facet normal 0.000000e+000 -1.830017e-001 0.000000e+000
    outer loop
      vertex   -7.868764e+001 3.452041e+001 3.046841e+001
      vertex   -7.163652e+001 3.452041e+001 1.585664e+001
      vertex   -7.148667e+001 3.452041e+001 1.621841e+001
    endloop
  endfacet
  facet normal 0.000000e+000 -9.799163e-002 0.000000e+000
    outer loop
      vertex   -7.868764e+001 3.452041e+001 3.046841e+001
      vertex   -7.124830e+001 3.452041e+001 2.440775e+001
      vertex   -7.148667e+001 3.452041e+001 2.471842e+001
    endloop
  endfacet
  facet normal 0.000000e+000 -2.233291e-001 0.000000e+000
    outer loop
      vertex   -7.868764e+001 3.452041e+001 3.046841e+001
      vertex   -7.148667e+001 3.452041e+001 1.621841e+001
      vertex   -7.124830e+001 3.452041e+001 1.652907e+001
    endloop
  endfacet
  facet normal 0.000000e+000 -3.195440e+000 0.000000e+000
    outer loop
      vertex   -7.868764e+001 3.452041e+001 3.046841e+001
      vertex   -7.018764e+001 3.452041e+001 1.696841e+001
      vertex   -7.124830e+001 3.452041e+001 2.440775e+001
    endloop
  endfacet
  facet normal 0.000000e+000 -2.454154e-001 0.000000e+000
    outer loop
      vertex   -7.868764e+001 3.452041e+001 3.046841e+001
      vertex   -7.124830e+001 3.452041e+001 1.652907e+001
      vertex   -7.093764e+001 3.452041e+001 1.676745e+001
    endloop
  endfacet
  facet normal 0.000000e+000 -2.252572e-001 0.000000e+000
    outer loop
      vertex   -7.868764e+001 3.452041e+001 3.046841e+001
      vertex   -7.057586e+001 3.452041e+001 1.691730e+001
      vertex   -7.018764e+001 3.452041e+001 1.696841e+001
    endloop
  endfacet
  facet normal 0.000000e+000 -2.460937e-001 0.000000e+000
    outer loop
      vertex   -7.868764e+001 3.452041e+001 3.046841e+001
      vertex   -7.093764e+001 3.452041e+001 1.676745e+001
      vertex   -7.057586e+001 3.452041e+001 1.691730e+001
    endloop
  endfacet
  facet normal 0.000000e+000 -1.067830e-001 0.000000e+000
    outer loop
      vertex   -7.018764e+001 3.452041e+001 1.696841e+001
      vertex   -6.873875e+001 3.452041e+001 2.508018e+001
      vertex   -6.888860e+001 3.452041e+001 2.471842e+001
    endloop
  endfacet
  facet normal 0.000000e+000 -6.994989e+000 0.000000e+000
    outer loop
      vertex   -7.124830e+001 3.452041e+001 2.440775e+001
      vertex   -7.018764e+001 3.452041e+001 1.696841e+001
      vertex   -7.093764e+001 3.452041e+001 2.416938e+001
    endloop
  endfacet
  facet normal 0.000000e+000 -2.445159e-001 0.000000e+000
    outer loop
      vertex   -7.018764e+001 3.452041e+001 1.696841e+001
      vertex   -6.888860e+001 3.452041e+001 2.471842e+001
      vertex   -6.912698e+001 3.452041e+001 2.440775e+001
    endloop
  endfacet
  facet normal 0.000000e+000 -8.792681e+000 0.000000e+000
    outer loop
      vertex   -7.093764e+001 3.452041e+001 2.416938e+001
      vertex   -7.018764e+001 3.452041e+001 1.696841e+001
      vertex   -7.057586e+001 3.452041e+001 2.401953e+001
    endloop
  endfacet
  facet normal 0.000000e+000 -3.783185e-001 0.000000e+000
    outer loop
      vertex   -7.018764e+001 3.452041e+001 1.696841e+001
      vertex   -6.912698e+001 3.452041e+001 2.440775e+001
      vertex   -6.943764e+001 3.452041e+001 2.416938e+001
    endloop
  endfacet
  facet normal 0.000000e+000 -9.827702e+000 0.000000e+000
    outer loop
      vertex   -7.057586e+001 3.452041e+001 2.401953e+001
      vertex   -7.018764e+001 3.452041e+001 1.696841e+001
      vertex   -7.018764e+001 3.452041e+001 2.396842e+001
    endloop
  endfacet
  facet normal 0.000000e+000 -4.875553e-001 0.000000e+000
    outer loop
      vertex   -7.018764e+001 3.452041e+001 1.696841e+001
      vertex   -6.943764e+001 3.452041e+001 2.416938e+001
      vertex   -6.979941e+001 3.452041e+001 2.401953e+001
    endloop
  endfacet
  facet normal 0.000000e+000 -5.497626e-001 0.000000e+000
    outer loop
      vertex   -7.018764e+001 3.452041e+001 1.696841e+001
      vertex   -6.979941e+001 3.452041e+001 2.401953e+001
      vertex   -7.018764e+001 3.452041e+001 2.396842e+001
    endloop
  endfacet
  facet normal -5.166664e-001 0.000000e+000 3.964572e-001
    outer loop
      vertex   -6.912698e+001 3.452041e+001 1.440775e+001
      vertex   -6.888860e+001 4.052041e+001 1.471841e+001
      vertex   -6.912698e+001 4.052041e+001 1.440775e+001
    endloop
  endfacet
  facet normal 0.000000e+000 8.320503e+000 0.000000e+000
    outer loop
      vertex   -7.868764e+001 3.452041e+001 -3.158600e-002
      vertex   -9.218764e+001 3.452041e+001 8.968415e+000
      vertex   -7.868764e+001 3.452041e+001 8.968415e+000
    endloop
  endfacet
  facet normal 0.000000e+000 8.320503e+000 0.000000e+000
    outer loop
      vertex   -9.218764e+001 3.452041e+001 8.968415e+000
      vertex   -7.868764e+001 3.452041e+001 -3.158600e-002
      vertex   -9.218764e+001 3.452041e+001 -3.158600e-002
    endloop
  endfacet
  facet normal 0.000000e+000 0.000000e+000 -6.484663e+000
    outer loop
      vertex   -7.868764e+001 3.452041e+001 -3.158600e-002
      vertex   -9.218764e+001 2.302041e+001 -3.158600e-002
      vertex   -9.218764e+001 3.452041e+001 -3.158600e-002
    endloop
  endfacet
  facet normal 0.000000e+000 0.000000e+000 -3.214070e-001
    outer loop
      vertex   -7.917633e+000 2.302041e+001 -3.158600e-002
      vertex   -4.330263e+001 2.877041e+001 -3.158600e-002
      vertex   -3.730263e+001 2.877041e+001 -3.158600e-002
    endloop
  endfacet
  facet normal 0.000000e+000 0.000000e+000 -1.920360e+000
    outer loop
      vertex   -3.730263e+001 2.877041e+001 -3.158600e-002
      vertex   -4.330263e+001 2.877041e+001 -3.158600e-002
      vertex   -6.668763e+001 3.452041e+001 -3.158600e-002
    endloop
  endfacet
  facet normal -0.000000e+000 -0.000000e+000 -2.387720e+000
    outer loop
      vertex   -6.668763e+001 3.452041e+001 -3.158600e-002
      vertex   -4.330263e+001 2.877041e+001 -3.158600e-002
      vertex   -7.868764e+001 3.452041e+001 -3.158600e-002
    endloop
  endfacet
  facet normal 0.000000e+000 0.000000e+000 -6.484663e+000
    outer loop
      vertex   -9.218764e+001 2.302041e+001 -3.158600e-002
      vertex   -7.868764e+001 3.452041e+001 -3.158600e-002
      vertex   -5.005264e+001 2.302041e+001 -3.158600e-002
    endloop
  endfacet
  facet normal 0.000000e+000 0.000000e+000 -8.854486e+000
    outer loop
      vertex   -5.005264e+001 2.302041e+001 -3.158600e-002
      vertex   -7.868764e+001 3.452041e+001 -3.158600e-002
      vertex   -4.330263e+001 2.877041e+001 -3.158600e-002
    endloop
  endfacet
  facet normal 0.000000e+000 0.000000e+000 -1.603944e+000
    outer loop
      vertex   -7.917633e+000 2.302041e+001 -3.158600e-002
      vertex   -5.005264e+001 2.302041e+001 -3.158600e-002
      vertex   -4.330263e+001 2.877041e+001 -3.158600e-002
    endloop
  endfacet
  facet normal 0.000000e+000 0.000000e+000 -9.813879e+000
    outer loop
      vertex   -7.917633e+000 2.302041e+001 -3.158600e-002
      vertex   -3.730263e+001 2.877041e+001 -3.158600e-002
      vertex   -7.917633e+000 3.452041e+001 -3.158600e-002
    endloop
  endfacet
  facet normal 0.000000e+000 0.000000e+000 -1.920360e+000
    outer loop
      vertex   -7.917633e+000 3.452041e+001 -3.158600e-002
      vertex   -3.730263e+001 2.877041e+001 -3.158600e-002
      vertex   -3.730263e+001 3.452041e+001 -3.158600e-002
    endloop
  endfacet
  facet normal -0.000000e+000 -0.000000e+000 -1.000000e+001
    outer loop
      vertex   -3.730263e+001 3.452041e+001 -3.158600e-002
      vertex   -3.730263e+001 2.877041e+001 -3.158600e-002
      vertex   -6.668763e+001 3.452041e+001 -3.158600e-002
    endloop
  endfacet
  facet normal 0.000000e+000 -8.325816e+000 0.000000e+000
    outer loop
      vertex   -7.093764e+001 3.452041e+001 1.416938e+001
      vertex   -7.868764e+001 3.452041e+001 8.968415e+000
      vertex   -7.057586e+001 3.452041e+001 1.401953e+001
    endloop
  endfacet
  facet normal 0.000000e+000 -6.348886e+000 0.000000e+000
    outer loop
      vertex   -7.057586e+001 3.452041e+001 1.401953e+001
      vertex   -7.868764e+001 3.452041e+001 8.968415e+000
      vertex   -7.018764e+001 3.452041e+001 1.396841e+001
    endloop
  endfacet
  facet normal 0.000000e+000 -9.596671e+000 0.000000e+000
    outer loop
      vertex   -7.124830e+001 3.452041e+001 1.440775e+001
      vertex   -7.868764e+001 3.452041e+001 8.968415e+000
      vertex   -7.093764e+001 3.452041e+001 1.416938e+001
    endloop
  endfacet
  facet normal 0.000000e+000 -1.494414e-001 0.000000e+000
    outer loop
      vertex   -7.868764e+001 3.452041e+001 8.968415e+000
      vertex   -6.979941e+001 3.452041e+001 1.401953e+001
      vertex   -7.018764e+001 3.452041e+001 1.396841e+001
    endloop
  endfacet
  facet normal 0.000000e+000 -9.998132e+000 0.000000e+000
    outer loop
      vertex   -7.148667e+001 3.452041e+001 1.471841e+001
      vertex   -7.868764e+001 3.452041e+001 8.968415e+000
      vertex   -7.124830e+001 3.452041e+001 1.440775e+001
    endloop
  endfacet
  facet normal 0.000000e+000 -4.566884e-002 0.000000e+000
    outer loop
      vertex   -7.868764e+001 3.452041e+001 8.968415e+000
      vertex   -6.943764e+001 3.452041e+001 1.416938e+001
      vertex   -6.979941e+001 3.452041e+001 1.401953e+001
    endloop
  endfacet
  facet normal 0.000000e+000 0.000000e+000 2.254079e-001
    outer loop
      vertex   -9.218764e+001 3.452041e+001 8.968415e+000
      vertex   -5.005264e+001 3.357041e+001 8.968415e+000
      vertex   -7.868764e+001 3.452041e+001 8.968415e+000
    endloop
  endfacet
  facet normal 0.000000e+000 0.000000e+000 6.322876e-002
    outer loop
      vertex   -7.868764e+001 3.452041e+001 8.968415e+000
      vertex   -5.005264e+001 3.357041e+001 8.968415e+000
      vertex   -4.330263e+001 3.357041e+001 8.968415e+000
    endloop
  endfacet
  facet normal 0.000000e+000 0.000000e+000 2.683787e-001
    outer loop
      vertex   -4.330263e+001 3.357041e+001 8.968415e+000
      vertex   -5.005264e+001 3.357041e+001 8.968415e+000
      vertex   -7.917633e+000 3.262041e+001 8.968415e+000
    endloop
  endfacet
  facet normal 3.818619e+000 0.000000e+000 -9.219220e+000
    outer loop
      vertex   -7.093764e+001 3.452041e+001 2.676745e+001
      vertex   -7.057586e+001 4.052041e+001 2.691730e+001
      vertex   -7.057586e+001 3.452041e+001 2.691730e+001
    endloop
  endfacet
  facet normal 3.818619e+000 0.000000e+000 -9.219220e+000
    outer loop
      vertex   -7.057586e+001 4.052041e+001 2.691730e+001
      vertex   -7.093764e+001 3.452041e+001 2.676745e+001
      vertex   -7.093764e+001 4.052041e+001 2.676745e+001
    endloop
  endfacet
  facet normal 6.074740e+000 6.938894e-017 -7.916654e+000
    outer loop
      vertex   -7.124830e+001 3.452041e+001 2.652907e+001
      vertex   -7.093764e+001 4.052041e+001 2.676745e+001
      vertex   -7.093764e+001 3.452041e+001 2.676745e+001
    endloop
  endfacet
  facet normal 6.074740e+000 6.938894e-017 -7.916654e+000
    outer loop
      vertex   -7.093764e+001 4.052041e+001 2.676745e+001
      vertex   -7.124830e+001 3.452041e+001 2.652907e+001
      vertex   -7.124830e+001 4.052041e+001 2.652907e+001
    endloop
  endfacet
  facet normal 5.166664e-001 0.000000e+000 -3.964493e-001
    outer loop
      vertex   -7.124830e+001 3.452041e+001 2.652907e+001
      vertex   -7.148667e+001 4.052041e+001 2.621841e+001
      vertex   -7.124830e+001 4.052041e+001 2.652907e+001
    endloop
  endfacet
  facet normal 6.016864e-001 0.000000e+000 2.492132e-001
    outer loop
      vertex   -7.148667e+001 4.052041e+001 1.471841e+001
      vertex   -7.163652e+001 3.452041e+001 1.508019e+001
      vertex   -7.148667e+001 3.452041e+001 1.471841e+001
    endloop
  endfacet
  facet normal 6.016864e-001 0.000000e+000 2.492132e-001
    outer loop
      vertex   -7.163652e+001 3.452041e+001 1.508019e+001
      vertex   -7.148667e+001 4.052041e+001 1.471841e+001
      vertex   -7.163652e+001 4.052041e+001 1.508019e+001
    endloop
  endfacet
  facet normal 5.166664e-001 0.000000e+000 3.964493e-001
    outer loop
      vertex   -7.148667e+001 3.452041e+001 1.471841e+001
      vertex   -7.124830e+001 4.052041e+001 1.440775e+001
      vertex   -7.148667e+001 4.052041e+001 1.471841e+001
    endloop
  endfacet
  facet normal 5.166664e-001 0.000000e+000 -3.964493e-001
    outer loop
      vertex   -7.148667e+001 4.052041e+001 2.621841e+001
      vertex   -7.124830e+001 3.452041e+001 2.652907e+001
      vertex   -7.148667e+001 3.452041e+001 2.621841e+001
    endloop
  endfacet
  facet normal 6.016725e-001 0.000000e+000 -2.492132e-001
    outer loop
      vertex   -7.148667e+001 3.452041e+001 2.621841e+001
      vertex   -7.163652e+001 4.052041e+001 2.585664e+001
      vertex   -7.148667e+001 4.052041e+001 2.621841e+001
    endloop
  endfacet
  facet normal 6.456764e-001 0.000000e+000 8.500610e-002
    outer loop
      vertex   -7.163652e+001 4.052041e+001 1.508019e+001
      vertex   -7.168763e+001 3.452041e+001 1.546842e+001
      vertex   -7.163652e+001 3.452041e+001 1.508019e+001
    endloop
  endfacet
  facet normal 6.456764e-001 0.000000e+000 8.500610e-002
    outer loop
      vertex   -7.168763e+001 3.452041e+001 1.546842e+001
      vertex   -7.163652e+001 4.052041e+001 1.508019e+001
      vertex   -7.168763e+001 4.052041e+001 1.546842e+001
    endloop
  endfacet
  facet normal 6.016725e-001 0.000000e+000 -2.492132e-001
    outer loop
      vertex   -7.163652e+001 4.052041e+001 2.585664e+001
      vertex   -7.148667e+001 3.452041e+001 2.621841e+001
      vertex   -7.163652e+001 3.452041e+001 2.585664e+001
    endloop
  endfacet
  facet normal 6.456744e-001 0.000000e+000 -8.500610e-002
    outer loop
      vertex   -7.163652e+001 3.452041e+001 2.585664e+001
      vertex   -7.168763e+001 4.052041e+001 2.546841e+001
      vertex   -7.163652e+001 4.052041e+001 2.585664e+001
    endloop
  endfacet
  facet normal 6.456606e-001 0.000000e+000 -8.500610e-002
    outer loop
      vertex   -7.168763e+001 4.052041e+001 1.546842e+001
      vertex   -7.163652e+001 3.452041e+001 1.585664e+001
      vertex   -7.168763e+001 3.452041e+001 1.546842e+001
    endloop
  endfacet
  facet normal 6.456606e-001 0.000000e+000 -8.500610e-002
    outer loop
      vertex   -7.163652e+001 3.452041e+001 1.585664e+001
      vertex   -7.168763e+001 4.052041e+001 1.546842e+001
      vertex   -7.163652e+001 4.052041e+001 1.585664e+001
    endloop
  endfacet
  facet normal 6.456744e-001 0.000000e+000 -8.500610e-002
    outer loop
      vertex   -7.168763e+001 4.052041e+001 2.546841e+001
      vertex   -7.163652e+001 3.452041e+001 2.585664e+001
      vertex   -7.168763e+001 3.452041e+001 2.546841e+001
    endloop
  endfacet
  facet normal 6.456783e-001 0.000000e+000 8.500610e-002
    outer loop
      vertex   -7.168763e+001 3.452041e+001 2.546841e+001
      vertex   -7.163652e+001 4.052041e+001 2.508018e+001
      vertex   -7.168763e+001 4.052041e+001 2.546841e+001
    endloop
  endfacet
  facet normal 6.016706e-001 0.000000e+000 -2.492132e-001
    outer loop
      vertex   -7.163652e+001 4.052041e+001 1.585664e+001
      vertex   -7.148667e+001 3.452041e+001 1.621841e+001
      vertex   -7.163652e+001 3.452041e+001 1.585664e+001
    endloop
  endfacet
  facet normal 6.016706e-001 0.000000e+000 -2.492132e-001
    outer loop
      vertex   -7.148667e+001 3.452041e+001 1.621841e+001
      vertex   -7.163652e+001 4.052041e+001 1.585664e+001
      vertex   -7.148667e+001 4.052041e+001 1.621841e+001
    endloop
  endfacet
  facet normal 6.456783e-001 0.000000e+000 8.500610e-002
    outer loop
      vertex   -7.163652e+001 4.052041e+001 2.508018e+001
      vertex   -7.168763e+001 3.452041e+001 2.546841e+001
      vertex   -7.163652e+001 3.452041e+001 2.508018e+001
    endloop
  endfacet
  facet normal 6.016528e-001 0.000000e+000 2.492133e-001
    outer loop
      vertex   -7.163652e+001 3.452041e+001 2.508018e+001
      vertex   -7.148667e+001 4.052041e+001 2.471842e+001
      vertex   -7.163652e+001 4.052041e+001 2.508018e+001
    endloop
  endfacet
  facet normal 5.166664e-001 0.000000e+000 -3.964493e-001
    outer loop
      vertex   -7.148667e+001 4.052041e+001 1.621841e+001
      vertex   -7.124830e+001 3.452041e+001 1.652907e+001
      vertex   -7.148667e+001 3.452041e+001 1.621841e+001
    endloop
  endfacet
  facet normal 5.166664e-001 0.000000e+000 -3.964493e-001
    outer loop
      vertex   -7.124830e+001 3.452041e+001 1.652907e+001
      vertex   -7.148667e+001 4.052041e+001 1.621841e+001
      vertex   -7.124830e+001 4.052041e+001 1.652907e+001
    endloop
  endfacet
  facet normal 6.016528e-001 0.000000e+000 2.492133e-001
    outer loop
      vertex   -7.148667e+001 4.052041e+001 2.471842e+001
      vertex   -7.163652e+001 3.452041e+001 2.508018e+001
      vertex   -7.148667e+001 3.452041e+001 2.471842e+001
    endloop
  endfacet
  facet normal 5.166862e-001 0.000000e+000 3.964493e-001
    outer loop
      vertex   -7.148667e+001 3.452041e+001 2.471842e+001
      vertex   -7.124830e+001 4.052041e+001 2.440775e+001
      vertex   -7.148667e+001 4.052041e+001 2.471842e+001
    endloop
  endfacet
  facet normal 6.074740e+000 6.938894e-017 -7.916654e+000
    outer loop
      vertex   -7.093764e+001 4.052041e+001 1.676745e+001
      vertex   -7.124830e+001 3.452041e+001 1.652907e+001
      vertex   -7.124830e+001 4.052041e+001 1.652907e+001
    endloop
  endfacet
  facet normal 5.166862e-001 0.000000e+000 3.964493e-001
    outer loop
      vertex   -7.124830e+001 4.052041e+001 2.440775e+001
      vertex   -7.148667e+001 3.452041e+001 2.471842e+001
      vertex   -7.124830e+001 3.452041e+001 2.440775e+001
    endloop
  endfacet
  facet normal 6.074550e+000 0.000000e+000 7.916801e+000
    outer loop
      vertex   -7.093764e+001 3.452041e+001 2.416938e+001
      vertex   -7.124830e+001 4.052041e+001 2.440775e+001
      vertex   -7.124830e+001 3.452041e+001 2.440775e+001
    endloop
  endfacet
  facet normal 6.074550e+000 0.000000e+000 7.916801e+000
    outer loop
      vertex   -7.124830e+001 4.052041e+001 2.440775e+001
      vertex   -7.093764e+001 3.452041e+001 2.416938e+001
      vertex   -7.093764e+001 4.052041e+001 2.416938e+001
    endloop
  endfacet
  facet normal 6.074740e+000 6.938894e-017 -7.916654e+000
    outer loop
      vertex   -7.124830e+001 3.452041e+001 1.652907e+001
      vertex   -7.093764e+001 4.052041e+001 1.676745e+001
      vertex   -7.093764e+001 3.452041e+001 1.676745e+001
    endloop
  endfacet
  facet normal 3.818619e+000 0.000000e+000 -9.219220e+000
    outer loop
      vertex   -7.057586e+001 4.052041e+001 1.691730e+001
      vertex   -7.093764e+001 3.452041e+001 1.676745e+001
      vertex   -7.093764e+001 4.052041e+001 1.676745e+001
    endloop
  endfacet
  facet normal 3.818619e+000 0.000000e+000 -9.219220e+000
    outer loop
      vertex   -7.093764e+001 3.452041e+001 1.676745e+001
      vertex   -7.057586e+001 4.052041e+001 1.691730e+001
      vertex   -7.057586e+001 3.452041e+001 1.691730e+001
    endloop
  endfacet
  facet normal 5.166664e-001 0.000000e+000 3.964493e-001
    outer loop
      vertex   -7.124830e+001 4.052041e+001 1.440775e+001
      vertex   -7.148667e+001 3.452041e+001 1.471841e+001
      vertex   -7.124830e+001 3.452041e+001 1.440775e+001
    endloop
  endfacet
  facet normal 6.074569e+000 0.000000e+000 7.916786e+000
    outer loop
      vertex   -7.093764e+001 3.452041e+001 1.416938e+001
      vertex   -7.124830e+001 4.052041e+001 1.440775e+001
      vertex   -7.124830e+001 3.452041e+001 1.440775e+001
    endloop
  endfacet
  facet normal 6.074569e+000 0.000000e+000 7.916786e+000
    outer loop
      vertex   -7.124830e+001 4.052041e+001 1.440775e+001
      vertex   -7.093764e+001 3.452041e+001 1.416938e+001
      vertex   -7.093764e+001 4.052041e+001 1.416938e+001
    endloop
  endfacet
  facet normal 3.818645e+000 0.000000e+000 9.219210e+000
    outer loop
      vertex   -7.057586e+001 3.452041e+001 1.401953e+001
      vertex   -7.093764e+001 4.052041e+001 1.416938e+001
      vertex   -7.093764e+001 3.452041e+001 1.416938e+001
    endloop
  endfacet
  facet normal 3.818645e+000 0.000000e+000 9.219210e+000
    outer loop
      vertex   -7.093764e+001 4.052041e+001 1.416938e+001
      vertex   -7.057586e+001 3.452041e+001 1.401953e+001
      vertex   -7.057586e+001 4.052041e+001 1.401953e+001
    endloop
  endfacet
  facet normal 1.302775e+000 0.000000e+000 9.893365e+000
    outer loop
      vertex   -7.018764e+001 3.452041e+001 1.396841e+001
      vertex   -7.057586e+001 4.052041e+001 1.401953e+001
      vertex   -7.057586e+001 3.452041e+001 1.401953e+001
    endloop
  endfacet
  facet normal 1.302775e+000 0.000000e+000 9.893365e+000
    outer loop
      vertex   -7.057586e+001 4.052041e+001 1.401953e+001
      vertex   -7.018764e+001 3.452041e+001 1.396841e+001
      vertex   -7.018764e+001 4.052041e+001 1.396841e+001
    endloop
  endfacet
  facet normal -1.302744e+000 -1.734723e-017 9.893368e+000
    outer loop
      vertex   -6.979941e+001 3.452041e+001 1.401953e+001
      vertex   -7.018764e+001 4.052041e+001 1.396841e+001
      vertex   -7.018764e+001 3.452041e+001 1.396841e+001
    endloop
  endfacet
  facet normal -1.302744e+000 -1.734723e-017 9.893368e+000
    outer loop
      vertex   -7.018764e+001 4.052041e+001 1.396841e+001
      vertex   -6.979941e+001 3.452041e+001 1.401953e+001
      vertex   -6.979941e+001 4.052041e+001 1.401953e+001
    endloop
  endfacet
  facet normal -6.074628e+000 0.000000e+000 7.916741e+000
    outer loop
      vertex   -6.943764e+001 4.052041e+001 1.416938e+001
      vertex   -6.912698e+001 3.452041e+001 1.440775e+001
      vertex   -6.912698e+001 4.052041e+001 1.440775e+001
    endloop
  endfacet
  facet normal -3.818688e+000 3.469447e-017 9.219193e+000
    outer loop
      vertex   -6.943764e+001 3.452041e+001 1.416938e+001
      vertex   -6.979941e+001 4.052041e+001 1.401953e+001
      vertex   -6.979941e+001 3.452041e+001 1.401953e+001
    endloop
  endfacet
  facet normal -3.818688e+000 3.469447e-017 9.219193e+000
    outer loop
      vertex   -6.979941e+001 4.052041e+001 1.401953e+001
      vertex   -6.943764e+001 3.452041e+001 1.416938e+001
      vertex   -6.943764e+001 4.052041e+001 1.416938e+001
    endloop
  endfacet
  facet normal -6.074628e+000 0.000000e+000 7.916741e+000
    outer loop
      vertex   -6.912698e+001 3.452041e+001 1.440775e+001
      vertex   -6.943764e+001 4.052041e+001 1.416938e+001
      vertex   -6.943764e+001 3.452041e+001 1.416938e+001
    endloop
  endfacet
  facet normal -5.166862e-001 0.000000e+000 3.964572e-001
    outer loop
      vertex   -6.888860e+001 4.052041e+001 2.471842e+001
      vertex   -6.912698e+001 3.452041e+001 2.440775e+001
      vertex   -6.888860e+001 3.452041e+001 2.471842e+001
    endloop
  endfacet
  facet normal -5.166862e-001 0.000000e+000 3.964572e-001
    outer loop
      vertex   -6.912698e+001 3.452041e+001 2.440775e+001
      vertex   -6.888860e+001 4.052041e+001 2.471842e+001
      vertex   -6.912698e+001 4.052041e+001 2.440775e+001
    endloop
  endfacet
  facet normal 3.818671e+000 0.000000e+000 9.219199e+000
    outer loop
      vertex   -7.057586e+001 3.452041e+001 2.401953e+001
      vertex   -7.093764e+001 4.052041e+001 2.416938e+001
      vertex   -7.093764e+001 3.452041e+001 2.416938e+001
    endloop
  endfacet
  facet normal 3.818671e+000 0.000000e+000 9.219199e+000
    outer loop
      vertex   -7.093764e+001 4.052041e+001 2.416938e+001
      vertex   -7.057586e+001 3.452041e+001 2.401953e+001
      vertex   -7.057586e+001 4.052041e+001 2.401953e+001
    endloop
  endfacet
  facet normal -6.074609e+000 -6.938894e-017 7.916756e+000
    outer loop
      vertex   -6.943764e+001 4.052041e+001 2.416938e+001
      vertex   -6.912698e+001 3.452041e+001 2.440775e+001
      vertex   -6.912698e+001 4.052041e+001 2.440775e+001
    endloop
  endfacet
  facet normal 1.302477e+000 0.000000e+000 9.893404e+000
    outer loop
      vertex   -7.018764e+001 3.452041e+001 2.396842e+001
      vertex   -7.057586e+001 4.052041e+001 2.401953e+001
      vertex   -7.057586e+001 3.452041e+001 2.401953e+001
    endloop
  endfacet
  facet normal 1.302477e+000 0.000000e+000 9.893404e+000
    outer loop
      vertex   -7.057586e+001 4.052041e+001 2.401953e+001
      vertex   -7.018764e+001 3.452041e+001 2.396842e+001
      vertex   -7.018764e+001 4.052041e+001 2.396842e+001
    endloop
  endfacet
  facet normal -6.074609e+000 -6.938894e-017 7.916756e+000
    outer loop
      vertex   -6.912698e+001 3.452041e+001 2.440775e+001
      vertex   -6.943764e+001 4.052041e+001 2.416938e+001
      vertex   -6.943764e+001 3.452041e+001 2.416938e+001
    endloop
  endfacet
  facet normal -3.818714e+000 -3.469447e-017 9.219181e+000
    outer loop
      vertex   -6.979941e+001 4.052041e+001 2.401953e+001
      vertex   -6.943764e+001 3.452041e+001 2.416938e+001
      vertex   -6.943764e+001 4.052041e+001 2.416938e+001
    endloop
  endfacet
  facet normal -1.302445e+000 -1.734723e-017 9.893407e+000
    outer loop
      vertex   -6.979941e+001 3.452041e+001 2.401953e+001
      vertex   -7.018764e+001 4.052041e+001 2.396842e+001
      vertex   -7.018764e+001 3.452041e+001 2.396842e+001
    endloop
  endfacet
  facet normal -1.302445e+000 -1.734723e-017 9.893407e+000
    outer loop
      vertex   -7.018764e+001 4.052041e+001 2.396842e+001
      vertex   -6.979941e+001 3.452041e+001 2.401953e+001
      vertex   -6.979941e+001 4.052041e+001 2.401953e+001
    endloop
  endfacet
  facet normal -3.818714e+000 -3.469447e-017 9.219181e+000
    outer loop
      vertex   -6.943764e+001 3.452041e+001 2.416938e+001
      vertex   -6.979941e+001 4.052041e+001 2.401953e+001
      vertex   -6.979941e+001 3.452041e+001 2.401953e+001
    endloop
  endfacet
  facet normal 9.784344e+000 0.000000e+000 0.000000e+000
    outer loop
      vertex   -7.917633e+000 3.262041e+001 8.968415e+000
      vertex   -7.917633e+000 3.452041e+001 -3.158600e-002
      vertex   -7.917633e+000 3.452041e+001 8.968415e+000
    endloop
  endfacet
  facet normal 8.502336e+000 0.000000e+000 0.000000e+000
    outer loop
      vertex   -7.917633e+000 2.492041e+001 1.968414e+000
      vertex   -7.917633e+000 2.302041e+001 -3.158600e-002
      vertex   -7.917633e+000 3.452041e+001 -3.158600e-002
    endloop
  endfacet
  facet normal 6.887491e+000 0.000000e+000 0.000000e+000
    outer loop
      vertex   -7.917633e+000 3.262041e+001 1.968414e+000
      vertex   -7.917633e+000 3.452041e+001 -3.158600e-002
      vertex   -7.917633e+000 3.262041e+001 8.968415e+000
    endloop
  endfacet
  facet normal 2.039543e+000 0.000000e+000 0.000000e+000
    outer loop
      vertex   -7.917633e+000 2.492041e+001 1.968414e+000
      vertex   -7.917633e+000 3.452041e+001 -3.158600e-002
      vertex   -7.917633e+000 3.262041e+001 1.968414e+000
    endloop
  endfacet
  facet normal 0.000000e+000 0.000000e+000 2.254085e-001
    outer loop
      vertex   -7.917633e+000 3.262041e+001 8.968415e+000
      vertex   -5.005264e+001 3.357041e+001 8.968415e+000
      vertex   -5.005264e+001 3.262041e+001 8.968415e+000
    endloop
  endfacet
  facet normal 0.000000e+000 0.000000e+000 1.000000e+001
    outer loop
      vertex   -5.005264e+001 3.262041e+001 8.968415e+000
      vertex   -5.005264e+001 3.357041e+001 8.968415e+000
      vertex   -9.218764e+001 3.262041e+001 8.968415e+000
    endloop
  endfacet
  facet normal 0.000000e+000 0.000000e+000 9.997459e+000
    outer loop
      vertex   -9.218764e+001 3.262041e+001 8.968415e+000
      vertex   -5.005264e+001 3.357041e+001 8.968415e+000
      vertex   -9.218764e+001 3.452041e+001 8.968415e+000
    endloop
  endfacet
  facet normal 0.000000e+000 -9.965677e+000 0.000000e+000
    outer loop
      vertex   -9.218764e+001 3.262041e+001 1.968414e+000
      vertex   -5.005264e+001 3.262041e+001 5.468414e+000
      vertex   -9.218764e+001 3.262041e+001 8.968415e+000
    endloop
  endfacet
  facet normal 0.000000e+000 -8.278124e-001 0.000000e+000
    outer loop
      vertex   -9.218764e+001 3.262041e+001 8.968415e+000
      vertex   -5.005264e+001 3.262041e+001 5.468414e+000
      vertex   -5.005264e+001 3.262041e+001 8.968415e+000
    endloop
  endfacet
  facet normal 0.000000e+000 -1.000000e+001 0.000000e+000
    outer loop
      vertex   -5.005264e+001 3.262041e+001 8.968415e+000
      vertex   -5.005264e+001 3.262041e+001 5.468414e+000
      vertex   -7.917633e+000 3.262041e+001 8.968415e+000
    endloop
  endfacet
  facet normal 0.000000e+000 -9.965677e+000 0.000000e+000
    outer loop
      vertex   -7.917633e+000 3.262041e+001 8.968415e+000
      vertex   -5.005264e+001 3.262041e+001 5.468414e+000
      vertex   -7.917633e+000 3.262041e+001 1.968414e+000
    endloop
  endfacet
  facet normal 0.000000e+000 -8.278122e-001 0.000000e+000
    outer loop
      vertex   -7.917633e+000 3.262041e+001 1.968414e+000
      vertex   -5.005264e+001 3.262041e+001 5.468414e+000
      vertex   -5.005264e+001 3.262041e+001 1.968414e+000
    endloop
  endfacet
  facet normal 0.000000e+000 -1.000000e+001 0.000000e+000
    outer loop
      vertex   -5.005264e+001 3.262041e+001 1.968414e+000
      vertex   -5.005264e+001 3.262041e+001 5.468414e+000
      vertex   -9.218764e+001 3.262041e+001 1.968414e+000
    endloop
  endfacet
  facet normal -6.887491e+000 0.000000e+000 0.000000e+000
    outer loop
      vertex   -9.218764e+001 3.452041e+001 -3.158600e-002
      vertex   -9.218764e+001 3.262041e+001 1.968414e+000
      vertex   -9.218764e+001 3.452041e+001 8.968415e+000
    endloop
  endfacet
  facet normal -9.650813e+000 0.000000e+000 0.000000e+000
    outer loop
      vertex   -9.218764e+001 3.452041e+001 8.968415e+000
      vertex   -9.218764e+001 3.262041e+001 1.968414e+000
      vertex   -9.218764e+001 3.262041e+001 8.968415e+000
    endloop
  endfacet
  facet normal -7.249993e+000 0.000000e+000 0.000000e+000
    outer loop
      vertex   -9.218764e+001 2.302041e+001 -3.158600e-002
      vertex   -9.218764e+001 2.492041e+001 1.968414e+000
      vertex   -9.218764e+001 3.452041e+001 -3.158600e-002
    endloop
  endfacet
  facet normal -5.692873e+000 0.000000e+000 0.000000e+000
    outer loop
      vertex   -9.218764e+001 3.452041e+001 -3.158600e-002
      vertex   -9.218764e+001 2.492041e+001 1.968414e+000
      vertex   -9.218764e+001 3.262041e+001 1.968414e+000
    endloop
  endfacet
  facet normal 0.000000e+000 -9.988754e+000 0.000000e+000
    outer loop
      vertex   -7.917633e+000 2.302041e+001 3.968414e+000
      vertex   -5.005264e+001 2.302041e+001 1.968414e+000
      vertex   -7.917633e+000 2.302041e+001 -3.158600e-002
    endloop
  endfacet
  facet normal 0.000000e+000 -4.741310e-001 0.000000e+000
    outer loop
      vertex   -7.917633e+000 2.302041e+001 -3.158600e-002
      vertex   -5.005264e+001 2.302041e+001 1.968414e+000
      vertex   -5.005264e+001 2.302041e+001 -3.158600e-002
    endloop
  endfacet
  facet normal 0.000000e+000 -1.000000e+001 0.000000e+000
    outer loop
      vertex   -5.005264e+001 2.302041e+001 -3.158600e-002
      vertex   -5.005264e+001 2.302041e+001 1.968414e+000
      vertex   -9.218764e+001 2.302041e+001 -3.158600e-002
    endloop
  endfacet
  facet normal 0.000000e+000 -9.988754e+000 0.000000e+000
    outer loop
      vertex   -9.218764e+001 2.302041e+001 -3.158600e-002
      vertex   -5.005264e+001 2.302041e+001 1.968414e+000
      vertex   -9.218764e+001 2.302041e+001 3.968414e+000
    endloop
  endfacet
  facet normal 0.000000e+000 -4.741308e-001 0.000000e+000
    outer loop
      vertex   -9.218764e+001 2.302041e+001 3.968414e+000
      vertex   -5.005264e+001 2.302041e+001 1.968414e+000
      vertex   -5.005264e+001 2.302041e+001 3.968414e+000
    endloop
  endfacet
  facet normal 0.000000e+000 -1.000000e+001 0.000000e+000
    outer loop
      vertex   -5.005264e+001 2.302041e+001 3.968414e+000
      vertex   -5.005264e+001 2.302041e+001 1.968414e+000
      vertex   -7.917633e+000 2.302041e+001 3.968414e+000
    endloop
  endfacet
  facet normal -9.032775e+000 0.000000e+000 0.000000e+000
    outer loop
      vertex   -9.218764e+001 2.492041e+001 3.968414e+000
      vertex   -9.218764e+001 2.302041e+001 -3.158600e-002
      vertex   -9.218764e+001 2.302041e+001 3.968414e+000
    endloop
  endfacet
  facet normal -3.110660e+000 0.000000e+000 0.000000e+000
    outer loop
      vertex   -9.218764e+001 2.302041e+001 -3.158600e-002
      vertex   -9.218764e+001 2.492041e+001 3.968414e+000
      vertex   -9.218764e+001 2.492041e+001 1.968414e+000
    endloop
  endfacet
  facet normal 6.887496e+000 0.000000e+000 0.000000e+000
    outer loop
      vertex   -7.917633e+000 2.302041e+001 -3.158600e-002
      vertex   -7.917633e+000 2.492041e+001 1.968414e+000
      vertex   -7.917633e+000 2.302041e+001 3.968414e+000
    endloop
  endfacet
  facet normal 0.000000e+000 0.000000e+000 9.099389e-001
    outer loop
      vertex   -7.917633e+000 2.492041e+001 1.968414e+000
      vertex   -5.005264e+001 2.877041e+001 1.968414e+000
      vertex   -5.005264e+001 2.492041e+001 1.968414e+000
    endloop
  endfacet
  facet normal 0.000000e+000 0.000000e+000 1.000000e+001
    outer loop
      vertex   -5.005264e+001 2.492041e+001 1.968414e+000
      vertex   -5.005264e+001 2.877041e+001 1.968414e+000
      vertex   -9.218764e+001 2.492041e+001 1.968414e+000
    endloop
  endfacet
  facet normal 0.000000e+000 0.000000e+000 9.958514e+000
    outer loop
      vertex   -9.218764e+001 2.492041e+001 1.968414e+000
      vertex   -5.005264e+001 2.877041e+001 1.968414e+000
      vertex   -9.218764e+001 3.262041e+001 1.968414e+000
    endloop
  endfacet
  facet normal 0.000000e+000 0.000000e+000 9.099388e-001
    outer loop
      vertex   -9.218764e+001 3.262041e+001 1.968414e+000
      vertex   -5.005264e+001 2.877041e+001 1.968414e+000
      vertex   -5.005264e+001 3.262041e+001 1.968414e+000
    endloop
  endfacet
  facet normal 0.000000e+000 0.000000e+000 1.000000e+001
    outer loop
      vertex   -5.005264e+001 3.262041e+001 1.968414e+000
      vertex   -5.005264e+001 2.877041e+001 1.968414e+000
      vertex   -7.917633e+000 3.262041e+001 1.968414e+000
    endloop
  endfacet
  facet normal 0.000000e+000 0.000000e+000 9.958514e+000
    outer loop
      vertex   -7.917633e+000 3.262041e+001 1.968414e+000
      vertex   -5.005264e+001 2.877041e+001 1.968414e+000
      vertex   -7.917633e+000 2.492041e+001 1.968414e+000
    endloop
  endfacet
  facet normal 0.000000e+000 9.997185e+000 0.000000e+000
    outer loop
      vertex   -9.218764e+001 2.492041e+001 3.968414e+000
      vertex   -5.005264e+001 2.492041e+001 2.968414e+000
      vertex   -9.218764e+001 2.492041e+001 1.968414e+000
    endloop
  endfacet
  facet normal 0.000000e+000 2.372655e-001 0.000000e+000
    outer loop
      vertex   -9.218764e+001 2.492041e+001 1.968414e+000
      vertex   -5.005264e+001 2.492041e+001 2.968414e+000
      vertex   -5.005264e+001 2.492041e+001 1.968414e+000
    endloop
  endfacet
  facet normal 0.000000e+000 1.000000e+001 0.000000e+000
    outer loop
      vertex   -5.005264e+001 2.492041e+001 1.968414e+000
      vertex   -5.005264e+001 2.492041e+001 2.968414e+000
      vertex   -7.917633e+000 2.492041e+001 1.968414e+000
    endloop
  endfacet
  facet normal 0.000000e+000 9.997185e+000 0.000000e+000
    outer loop
      vertex   -7.917633e+000 2.492041e+001 1.968414e+000
      vertex   -5.005264e+001 2.492041e+001 2.968414e+000
      vertex   -7.917633e+000 2.492041e+001 3.968414e+000
    endloop
  endfacet
  facet normal 0.000000e+000 2.372656e-001 0.000000e+000
    outer loop
      vertex   -7.917633e+000 2.492041e+001 3.968414e+000
      vertex   -5.005264e+001 2.492041e+001 2.968414e+000
      vertex   -5.005264e+001 2.492041e+001 3.968414e+000
    endloop
  endfacet
  facet normal 0.000000e+000 1.000000e+001 0.000000e+000
    outer loop
      vertex   -5.005264e+001 2.492041e+001 3.968414e+000
      vertex   -5.005264e+001 2.492041e+001 2.968414e+000
      vertex   -9.218764e+001 2.492041e+001 3.968414e+000
    endloop
  endfacet
  facet normal 1.000000e+001 0.000000e+000 0.000000e+000
    outer loop
      vertex   -7.917633e+000 2.492041e+001 3.968414e+000
      vertex   -7.917633e+000 2.302041e+001 3.968414e+000
      vertex   -7.917633e+000 2.492041e+001 1.968414e+000
    endloop
  endfacet
  facet normal 0.000000e+000 0.000000e+000 2.254085e-001
    outer loop
      vertex   -7.917633e+000 2.302041e+001 3.968414e+000
      vertex   -5.005264e+001 2.397041e+001 3.968414e+000
      vertex   -5.005264e+001 2.302041e+001 3.968414e+000
    endloop
  endfacet
  facet normal 0.000000e+000 0.000000e+000 1.000000e+001
    outer loop
      vertex   -5.005264e+001 2.302041e+001 3.968414e+000
      vertex   -5.005264e+001 2.397041e+001 3.968414e+000
      vertex   -9.218764e+001 2.302041e+001 3.968414e+000
    endloop
  endfacet
  facet normal 0.000000e+000 0.000000e+000 9.997459e+000
    outer loop
      vertex   -9.218764e+001 2.302041e+001 3.968414e+000
      vertex   -5.005264e+001 2.397041e+001 3.968414e+000
      vertex   -9.218764e+001 2.492041e+001 3.968414e+000
    endloop
  endfacet
  facet normal 0.000000e+000 0.000000e+000 2.254085e-001
    outer loop
      vertex   -9.218764e+001 2.492041e+001 3.968414e+000
      vertex   -5.005264e+001 2.397041e+001 3.968414e+000
      vertex   -5.005264e+001 2.492041e+001 3.968414e+000
    endloop
  endfacet
  facet normal 0.000000e+000 0.000000e+000 1.000000e+001
    outer loop
      vertex   -5.005264e+001 2.492041e+001 3.968414e+000
      vertex   -5.005264e+001 2.397041e+001 3.968414e+000
      vertex   -7.917633e+000 2.492041e+001 3.968414e+000
    endloop
  endfacet
  facet normal 0.000000e+000 0.000000e+000 9.997459e+000
    outer loop
      vertex   -7.917633e+000 2.492041e+001 3.968414e+000
      vertex   -5.005264e+001 2.397041e+001 3.968414e+000
      vertex   -7.917633e+000 2.302041e+001 3.968414e+000
    endloop
  endfacet
endsolid
